<svg width="120" height="74" viewBox="0 0 120 74" fill="none" xmlns="http://www.w3.org/2000/svg">
<path d="M86.104 0H33.296C32.028 0 31 1.0198 31 2.27778V38.7222C31 39.9802 32.028 41 33.296 41H86.104C87.372 41 88.4 39.9802 88.4 38.7222V2.27778C88.4 1.0198 87.372 0 86.104 0Z" fill="#4E9F4F"/>
<path d="M42.7577 10.3523V29.6111H50.1703C55.9956 29.6111 59.4261 26.0209 59.4261 19.9083C59.4261 13.7957 55.9956 10.3523 50.1703 10.3523H42.7577ZM46.8205 13.6756H49.686C53.2646 13.6756 55.2825 15.8911 55.2825 19.9216C55.2825 24.0857 53.3184 26.2746 49.686 26.2746H46.8205V13.6756ZM61.7363 24.1258C61.8573 27.7427 64.8304 29.9448 69.4986 29.9448C74.315 29.9448 77.3689 27.5825 77.3689 23.8456C77.3689 20.9093 75.6737 19.2543 71.7857 18.4269L69.4314 17.9331C67.1983 17.4259 66.2565 16.7586 66.2565 15.5708C66.2565 14.1427 67.6019 13.1951 69.6063 13.1951C71.6378 13.1951 73.0772 14.1827 73.2117 15.811H77.019C76.9517 12.3276 74.1131 10.0187 69.593 10.0187C65.2609 10.0187 62.1668 12.3676 62.1668 15.9177C62.1668 18.7338 63.9292 20.5356 67.5075 21.2963L70.0368 21.8435C72.3776 22.364 73.3059 23.0579 73.3059 24.3125C73.3059 25.7273 71.8261 26.755 69.66 26.755C67.5075 26.755 65.8395 25.7141 65.6512 24.1258H61.7363Z" fill="white"/>
<path d="M7.018 56.67H6.996L5.126 62.478H8.844L7.018 56.67ZM10.648 68L9.724 64.986H4.334L3.3 68H0.066L5.28 53.392H8.822L13.97 68H10.648ZM21.2453 68L18.8693 63.138L17.4833 64.568V68H14.6013V53.216H17.4833V61.29L21.0473 57.176H24.5453L20.9153 61.158L24.4573 68H21.2453ZM30.7813 60.454C30.7079 59.9553 30.5173 59.596 30.2093 59.376C29.9159 59.1413 29.4613 59.024 28.8453 59.024C28.2586 59.024 27.8113 59.0973 27.5033 59.244C27.2099 59.376 27.0633 59.6107 27.0633 59.948C27.0633 60.2413 27.2099 60.476 27.5033 60.652C27.8113 60.828 28.2513 60.9967 28.8233 61.158C29.7619 61.422 30.5539 61.6493 31.1993 61.84C31.8446 62.016 32.3579 62.2287 32.7393 62.478C33.1353 62.7273 33.4139 63.0427 33.5753 63.424C33.7513 63.7907 33.8393 64.2893 33.8393 64.92C33.8393 65.888 33.4359 66.6947 32.6293 67.34C31.8226 67.9707 30.6273 68.286 29.0433 68.286C28.2659 68.286 27.5619 68.198 26.9313 68.022C26.3006 67.846 25.7579 67.5967 25.3033 67.274C24.8633 66.9367 24.5186 66.5407 24.2693 66.086C24.0346 65.6167 23.9099 65.096 23.8953 64.524H26.8433C26.8433 65.0373 27.0413 65.4333 27.4373 65.712C27.8479 65.9907 28.3759 66.13 29.0213 66.13C29.5639 66.13 30.0259 66.0493 30.4073 65.888C30.8033 65.712 31.0013 65.448 31.0013 65.096C31.0013 64.7 30.8546 64.414 30.5613 64.238C30.2826 64.062 29.8499 63.908 29.2633 63.776C28.2073 63.5413 27.3566 63.2993 26.7113 63.05C26.0659 62.786 25.5599 62.5 25.1933 62.192C24.8413 61.884 24.5993 61.5467 24.4673 61.18C24.3499 60.8133 24.2913 60.4027 24.2913 59.948C24.2913 59.5373 24.3719 59.1487 24.5333 58.782C24.7093 58.4153 24.9806 58.0927 25.3473 57.814C25.7139 57.5353 26.1906 57.3153 26.7773 57.154C27.3639 56.978 28.0826 56.89 28.9333 56.89C30.4879 56.89 31.6246 57.2053 32.3433 57.836C33.0619 58.4667 33.4579 59.3393 33.5313 60.454H30.7813ZM41.6668 61.532C41.6521 61.136 41.5788 60.7913 41.4468 60.498C41.3295 60.19 41.1681 59.9407 40.9628 59.75C40.7575 59.5447 40.5228 59.398 40.2588 59.31C39.9948 59.2073 39.7235 59.156 39.4448 59.156C38.8728 59.156 38.3741 59.3687 37.9488 59.794C37.5381 60.2047 37.3035 60.784 37.2448 61.532H41.6668ZM37.1568 63.336C37.2008 64.1573 37.4355 64.81 37.8608 65.294C38.3008 65.778 38.8728 66.02 39.5768 66.02C40.0461 66.02 40.4568 65.9173 40.8088 65.712C41.1755 65.492 41.4101 65.1913 41.5128 64.81H44.4608C44.1235 65.9247 43.5368 66.7827 42.7008 67.384C41.8648 67.9853 40.8675 68.286 39.7088 68.286C36.1008 68.286 34.2968 66.3207 34.2968 62.39C34.2968 61.554 34.4141 60.7987 34.6488 60.124C34.8835 59.4493 35.2208 58.87 35.6608 58.386C36.1155 57.902 36.6655 57.5353 37.3108 57.286C37.9561 57.022 38.6968 56.89 39.5328 56.89C41.2048 56.89 42.4661 57.4253 43.3168 58.496C44.1821 59.5667 44.6148 61.18 44.6148 63.336H37.1568ZM52.0078 60.454C51.9345 59.9553 51.7438 59.596 51.4358 59.376C51.1425 59.1413 50.6878 59.024 50.0718 59.024C49.4852 59.024 49.0378 59.0973 48.7298 59.244C48.4365 59.376 48.2898 59.6107 48.2898 59.948C48.2898 60.2413 48.4365 60.476 48.7298 60.652C49.0378 60.828 49.4778 60.9967 50.0498 61.158C50.9885 61.422 51.7805 61.6493 52.4258 61.84C53.0712 62.016 53.5845 62.2287 53.9658 62.478C54.3618 62.7273 54.6405 63.0427 54.8018 63.424C54.9778 63.7907 55.0658 64.2893 55.0658 64.92C55.0658 65.888 54.6625 66.6947 53.8558 67.34C53.0492 67.9707 51.8538 68.286 50.2698 68.286C49.4925 68.286 48.7885 68.198 48.1578 68.022C47.5272 67.846 46.9845 67.5967 46.5298 67.274C46.0898 66.9367 45.7452 66.5407 45.4958 66.086C45.2612 65.6167 45.1365 65.096 45.1218 64.524H48.0698C48.0698 65.0373 48.2678 65.4333 48.6638 65.712C49.0745 65.9907 49.6025 66.13 50.2478 66.13C50.7905 66.13 51.2525 66.0493 51.6338 65.888C52.0298 65.712 52.2278 65.448 52.2278 65.096C52.2278 64.7 52.0812 64.414 51.7878 64.238C51.5092 64.062 51.0765 63.908 50.4898 63.776C49.4338 63.5413 48.5832 63.2993 47.9378 63.05C47.2925 62.786 46.7865 62.5 46.4198 62.192C46.0678 61.884 45.8258 61.5467 45.6938 61.18C45.5765 60.8133 45.5178 60.4027 45.5178 59.948C45.5178 59.5373 45.5985 59.1487 45.7598 58.782C45.9358 58.4153 46.2072 58.0927 46.5738 57.814C46.9405 57.5353 47.4172 57.3153 48.0038 57.154C48.5905 56.978 49.3092 56.89 50.1598 56.89C51.7145 56.89 52.8512 57.2053 53.5698 57.836C54.2885 58.4667 54.6845 59.3393 54.7578 60.454H52.0078ZM66.6349 65.514C67.9696 65.514 68.9376 65.1033 69.5389 64.282C70.1402 63.446 70.4409 62.1993 70.4409 60.542C70.4409 59.7207 70.3676 59.0167 70.2209 58.43C70.0742 57.8433 69.8322 57.3667 69.4949 57C69.1722 56.6187 68.7542 56.3473 68.2409 56.186C67.7276 56.01 67.1042 55.922 66.3709 55.922H64.1049V65.514H66.6349ZM61.1349 68V53.392H66.7889C67.7716 53.392 68.6809 53.5607 69.5169 53.898C70.3529 54.2207 71.0642 54.69 71.6509 55.306C72.2522 55.922 72.7216 56.67 73.0589 57.55C73.3962 58.43 73.5649 59.4273 73.5649 60.542C73.5649 61.6567 73.4109 62.676 73.1029 63.6C72.8096 64.5093 72.3842 65.294 71.8269 65.954C71.2696 66.5993 70.6022 67.1053 69.8249 67.472C69.0476 67.824 68.1896 68 67.2509 68H61.1349ZM74.5013 68V57.176H77.3613V68H74.5013ZM74.5013 55.878V53.216H77.3613V55.878H74.5013ZM83.7738 65.844C84.4778 65.844 85.0571 65.58 85.5118 65.052C85.9811 64.5093 86.2158 63.776 86.2158 62.852C86.2158 60.5347 85.4018 59.376 83.7738 59.376C82.1458 59.376 81.3318 60.476 81.3318 62.676C81.3318 63.644 81.5591 64.414 82.0138 64.986C82.4831 65.558 83.0698 65.844 83.7738 65.844ZM86.1278 66.548C85.9224 67.032 85.5484 67.4133 85.0058 67.692C84.4778 67.956 83.8618 68.088 83.1578 68.088C82.2631 68.088 81.5078 67.934 80.8918 67.626C80.2904 67.3033 79.7991 66.8853 79.4178 66.372C79.0511 65.8587 78.7798 65.2647 78.6038 64.59C78.4424 63.9153 78.3618 63.226 78.3618 62.522C78.3618 61.686 78.4864 60.9233 78.7358 60.234C78.9851 59.53 79.3224 58.936 79.7478 58.452C80.1731 57.9533 80.6718 57.572 81.2438 57.308C81.8158 57.0293 82.4318 56.89 83.0918 56.89C84.4411 56.89 85.4531 57.4327 86.1278 58.518V57.176H88.9878V68.11C88.9878 68.9313 88.8484 69.65 88.5698 70.266C88.2911 70.8967 87.9098 71.4173 87.4258 71.828C86.9418 72.2533 86.3698 72.576 85.7098 72.796C85.0498 73.016 84.3458 73.126 83.5978 73.126C82.8498 73.126 82.1531 73.016 81.5078 72.796C80.8624 72.5907 80.3051 72.29 79.8358 71.894C79.3811 71.5127 79.0218 71.0433 78.7578 70.486C78.4938 69.9287 78.3618 69.298 78.3618 68.594H81.0238C81.0238 69.254 81.2364 69.76 81.6618 70.112C82.1018 70.4787 82.6811 70.662 83.3998 70.662C84.1624 70.662 84.8078 70.4493 85.3358 70.024C85.8638 69.6133 86.1278 69.0487 86.1278 68.33V66.548ZM90.2064 68V57.176H93.0664V68H90.2064ZM90.2064 55.878V53.216H93.0664V55.878H90.2064ZM100.425 60.872H103.087V63.952C103.087 64.524 102.999 65.074 102.823 65.602C102.662 66.1153 102.398 66.5773 102.031 66.988C101.679 67.384 101.224 67.6993 100.667 67.934C100.124 68.1687 99.4715 68.286 98.7088 68.286C97.9168 68.286 97.2422 68.1687 96.6848 67.934C96.1275 67.6993 95.6655 67.384 95.2988 66.988C94.9468 66.592 94.6902 66.13 94.5288 65.602C94.3675 65.074 94.2868 64.5167 94.2868 63.93V54.25H97.1028V57.176H103.087V59.2H97.1028V63.644C97.1028 64.3333 97.2275 64.8687 97.4768 65.25C97.7408 65.6167 98.1662 65.8 98.7528 65.8C99.3248 65.8 99.7428 65.6167 100.007 65.25C100.286 64.8833 100.425 64.3627 100.425 63.688V60.872ZM110.705 62.698C110.558 62.8447 110.345 62.962 110.067 63.05C109.788 63.138 109.385 63.2333 108.857 63.336C108.035 63.4973 107.471 63.7027 107.163 63.952C106.855 64.2013 106.701 64.5607 106.701 65.03C106.701 65.8367 107.163 66.24 108.087 66.24C108.453 66.24 108.791 66.1813 109.099 66.064C109.421 65.932 109.693 65.7633 109.913 65.558C110.147 65.338 110.331 65.0887 110.463 64.81C110.609 64.5167 110.683 64.2087 110.683 63.886L110.705 62.698ZM110.903 68C110.815 67.7213 110.756 67.3987 110.727 67.032C110.389 67.4133 109.942 67.7213 109.385 67.956C108.827 68.176 108.182 68.286 107.449 68.286C106.202 68.286 105.285 68.0147 104.699 67.472C104.127 66.9147 103.841 66.196 103.841 65.316C103.841 64.5387 103.965 63.9227 104.215 63.468C104.464 62.9987 104.809 62.632 105.249 62.368C105.689 62.104 106.209 61.9133 106.811 61.796C107.427 61.664 108.094 61.5467 108.813 61.444C109.531 61.3413 110.015 61.2093 110.265 61.048C110.514 60.872 110.639 60.5933 110.639 60.212C110.639 59.86 110.47 59.5887 110.133 59.398C109.81 59.1927 109.37 59.09 108.813 59.09C108.153 59.09 107.676 59.2367 107.383 59.53C107.104 59.8233 106.928 60.212 106.855 60.696H104.193C104.207 60.1387 104.295 59.6253 104.457 59.156C104.633 58.6867 104.904 58.2833 105.271 57.946C105.652 57.6087 106.143 57.352 106.745 57.176C107.346 56.9853 108.079 56.89 108.945 56.89C109.795 56.89 110.514 56.9853 111.101 57.176C111.702 57.3667 112.179 57.6453 112.531 58.012C112.897 58.364 113.161 58.8113 113.323 59.354C113.484 59.882 113.565 60.4833 113.565 61.158V68H110.903ZM114.718 68V53.216H117.578V68H114.718Z" fill="black"/>
</svg>
