<svg width="35" height="28" viewBox="0 0 35 28" fill="none" xmlns="http://www.w3.org/2000/svg">
<g filter="url(#filter0_d_167_1455)">
<path d="M29 1H6C5.44772 1 5 1.44772 5 2V18C5 18.5523 5.44772 19 6 19H29C29.5523 19 30 18.5523 30 18V2C30 1.44772 29.5523 1 29 1Z" fill="#4E9F4F"/>
<path d="M10.1209 5.54492V14H13.3495C15.8866 14 17.3807 12.4238 17.3807 9.74023C17.3807 7.05664 15.8866 5.54492 13.3495 5.54492H10.1209ZM11.8905 7.00391H13.1385C14.6971 7.00391 15.576 7.97656 15.576 9.74609C15.576 11.5742 14.7205 12.5352 13.1385 12.5352H11.8905V7.00391ZM18.3869 11.5918C18.4396 13.1797 19.7345 14.1465 21.7677 14.1465C23.8654 14.1465 25.1955 13.1094 25.1955 11.4688C25.1955 10.1797 24.4572 9.45312 22.7638 9.08984L21.7384 8.87305C20.7658 8.65039 20.3556 8.35742 20.3556 7.83594C20.3556 7.20898 20.9416 6.79297 21.8146 6.79297C22.6994 6.79297 23.3263 7.22656 23.3849 7.94141H25.0431C25.0138 6.41211 23.7775 5.39844 21.8088 5.39844C19.922 5.39844 18.5744 6.42969 18.5744 7.98828C18.5744 9.22461 19.342 10.0156 20.9005 10.3496L22.0021 10.5898C23.0216 10.8184 23.4259 11.123 23.4259 11.6738C23.4259 12.2949 22.7814 12.7461 21.838 12.7461C20.9005 12.7461 20.174 12.2891 20.092 11.5918H18.3869Z" fill="white"/>
</g>
<defs>
<filter id="filter0_d_167_1455" x="0.170166" y="0.310024" width="34.6597" height="27.6597" filterUnits="userSpaceOnUse" color-interpolation-filters="sRGB">
<feFlood flood-opacity="0" result="BackgroundImageFix"/>
<feColorMatrix in="SourceAlpha" type="matrix" values="0 0 0 0 0 0 0 0 0 0 0 0 0 0 0 0 0 0 127 0" result="hardAlpha"/>
<feOffset dy="4.13986"/>
<feGaussianBlur stdDeviation="2.41492"/>
<feColorMatrix type="matrix" values="0 0 0 0 0 0 0 0 0 0 0 0 0 0 0 0 0 0 0.166466 0"/>
<feBlend mode="normal" in2="BackgroundImageFix" result="effect1_dropShadow_167_1455"/>
<feBlend mode="normal" in="SourceGraphic" in2="effect1_dropShadow_167_1455" result="shape"/>
</filter>
</defs>
</svg>
